<?xml version="1.0" encoding="UTF-8" standalone="no"?>
<svg
  xmlns:dc="http://purl.org/dc/elements/1.1/"
  xmlns:cc="http://creativecommons.org/ns#"
  xmlns:rdf="http://www.w3.org/1999/02/22-rdf-syntax-ns#"
  xmlns="http://www.w3.org/2000/svg"
  width="186.31284mm"
  height="23.678959mm"
  viewBox="0 0 186.31284 23.678959"
  version="1.1"
  id="svg902">
  <defs
    id="defs896">
    <linearGradient
      id="SVGID_1_"
      gradientUnits="userSpaceOnUse"
      x1="679.35529"
      y1="544.34912"
      x2="428.3606"
      y2="157.8172">
      <stop
        offset="0"
        style="stop-color:#0083E2"
        id="stop24"/>
      <stop
        offset="1"
        style="stop-color:#00FB9A"
        id="stop26"/>
    </linearGradient>
    <linearGradient
      id="SVGID_2_"
      gradientUnits="userSpaceOnUse"
      x1="586.05939"
      y1="604.17188"
      x2="338.34811"
      y2="222.6965">
      <stop
        offset="0"
        style="stop-color:#0083E2"
        id="stop31"/>
      <stop
        offset="1"
        style="stop-color:#00FB9A"
        id="stop33"/>
    </linearGradient>
    <linearGradient
      id="SVGID_3_"
      gradientUnits="userSpaceOnUse"
      x1="483.6474"
      y1="678.26202"
      x2="224.985"
      y2="279.922">
      <stop
        offset="0"
        style="stop-color:#0083E2"
        id="stop38"/>
      <stop
        offset="1"
        style="stop-color:#00FB9A"
        id="stop40"/>
    </linearGradient>
    <linearGradient
      id="SVGID_4_"
      gradientUnits="userSpaceOnUse"
      x1="452.19501"
      y1="697.01691"
      x2="201.2003"
      y2="310.48499">
      <stop
        offset="0"
        style="stop-color:#0083E2"
        id="stop45"/>
      <stop
        offset="1"
        style="stop-color:#00FB9A"
        id="stop47"/>
    </linearGradient>
  </defs>
  <metadata
    id="metadata899">
    <rdf:RDF>
      <cc:Work
        rdf:about="">
        <dc:format>image/svg+xml</dc:format>
        <dc:type
          rdf:resource="http://purl.org/dc/dcmitype/StillImage"/>
        <dc:title></dc:title>
      </cc:Work>
    </rdf:RDF>
  </metadata>
  <g
    id="layer1"
    transform="translate(211.08499,-136.99385)">
    <g
      id="g22"
      transform="matrix(0.26458333,0,0,0.26458333,-269.37332,-15.38031)">
      <path
        class="st0"
        d="m 260.7,594.8 c 4.3,0 8.6,0.5 12.4,1.2 l -0.6,4 c -3.8,-0.7 -8.1,-1.2 -11.8,-1.2 -10.6,0 -16.7,4.3 -16.7,21.9 0,17.2 6,21.9 16.1,21.9 3.9,0 8.6,-0.6 12.8,-1.4 l 0.5,3.8 c -4.3,1 -9.4,1.5 -13.3,1.5 -12.7,0 -20.9,-6 -20.9,-25.7 0,-20.4 8.3,-26 21.5,-26 z"
        id="path4"
        style="fill:#465468"/>
      <path
        class="st0"
        d="m 305.9,595.6 v 22.2 h 29.9 v -22.2 h 4.5 v 50.1 h -4.5 v -23.9 h -29.9 v 23.9 h -4.5 v -50.1 z"
        id="path6"
        style="fill:#465468"/>
      <path
        class="st0"
        d="m 376.2,645.7 h -4.5 v -32.6 c 0,-10.6 4.4,-18.3 18.2,-18.3 13.9,0 18.2,7.8 18.2,18.3 v 32.6 h -4.5 v -19.9 h -27.3 v 19.9 z m 27.3,-23.9 v -8.6 c 0,-8.1 -2.6,-14.4 -13.6,-14.4 -11,0 -13.6,6.3 -13.6,14.4 v 8.6 z"
        id="path8"
        style="fill:#465468"/>
      <path
        class="st0"
        d="m 443.9,595.6 v 50.1 h -4.5 v -50.1 z"
        id="path10"
        style="fill:#465468"/>
      <path
        class="st0"
        d="m 480.4,595.6 31.1,32 v -32 h 4.4 v 50.1 h -4.4 v -12 l -30.6,-31.4 v 43.4 h -4.4 v -50.1 z"
        id="path12"
        style="fill:#465468"/>
      <path
        class="st0"
        d="m 554.1,645.7 -13.4,-50.1 h 4.6 l 11.6,45.7 13.7,-35.4 h 5.4 l 13.6,35.4 c 6.3,-14.4 9.9,-28.8 12.4,-45.7 h 4.1 c -3.2,19.8 -6.9,33.8 -14.1,50.1 h -5.1 l -13.6,-35.2 -14,35.2 z"
        id="path14"
        style="fill:#465468"/>
      <path
        class="st0"
        d="m 635.4,595.6 v 50.1 h -4.5 v -50.1 z"
        id="path16"
        style="fill:#465468"/>
      <path
        class="st0"
        d="m 683.5,595.6 c 11.8,0 18.2,3.4 18.2,15.1 0,8.2 -3.9,12.4 -10.5,14.3 3.2,1.9 4.6,4.4 6.5,8.7 l 5.1,12.1 H 698 l -4.6,-11.2 c -1.9,-4.4 -4.5,-8.5 -10.3,-8.5 -3.2,0 -6.7,-0.4 -10.6,-1 v 20.7 H 668 v -50.1 h 15.5 z m -11,25.5 c 3.9,0.7 7.4,1 10.6,1 10.3,0 13.9,-3.7 13.9,-11.5 0,-8.7 -3.9,-11.1 -13.5,-11.1 h -11 z"
        id="path18"
        style="fill:#465468"/>
      <path
        class="st0"
        d="m 759.7,595.6 v 4 H 736 v 18.2 h 20.9 v 4 H 736 v 13.6 c 0,4.5 2.6,6.3 7.1,6.3 h 17.7 v 4 h -17.7 c -7.2,0 -11.6,-3.7 -11.6,-10.3 v -39.8 z"
        id="path20"
        style="fill:#465468"/>
    </g>
    <g
      id="g52"
      transform="matrix(0.06749703,0,0,0.06749703,-77.472307,118.26457)">
      <linearGradient
        id="linearGradient1481"
        gradientUnits="userSpaceOnUse"
        x1="679.35529"
        y1="544.34912"
        x2="428.3606"
        y2="157.8172">
        <stop
          offset="0"
          style="stop-color:#0083E2"
          id="stop1477"/>
        <stop
          offset="1"
          style="stop-color:#00FB9A"
          id="stop1479"/>
      </linearGradient>
      <path
        class="st1"
        d="M 706.7,436.9 V 392.2 H 662 V 406 h -29.4 l -33.9,35.5 h -77.4 v -5 h -23.1 v 23.1 h 23.1 v -4.5 h 77.4 l 33.9,35.5 H 662 v 13.8 h 44.7 V 459.7 H 662 V 477 H 638.4 L 611,448.4 638.4,419.7 H 662 V 437 h 44.7 z m -31.1,-31.1 h 17.6 v 17.6 h -17.6 z m 0,67.5 h 17.6 v 17.6 h -17.6 z"
        id="path29"
        style="fill:url(#SVGID_1_)"/>
      <linearGradient
        id="linearGradient1488"
        gradientUnits="userSpaceOnUse"
        x1="586.05939"
        y1="604.17188"
        x2="338.34811"
        y2="222.6965">
        <stop
          offset="0"
          style="stop-color:#0083E2"
          id="stop1484"/>
        <stop
          offset="1"
          style="stop-color:#00FB9A"
          id="stop1486"/>
      </linearGradient>
      <path
        class="st2"
        d="m 567.6,500.8 h -17.7 l -28.3,-28.3 -32.3,0.1 v -49.2 l 32.3,0.1 28.3,-28.3 h 17.7 v 15.6 h 44.7 v -44.7 h -44.7 v 15.6 H 544.3 L 516,409.8 h -26.7 v -56.2 h -17.1 c -28.9,27.7 -53.7,41.3 -69.8,47.8 -2.9,1.2 -5.5,2.1 -8,3 l 0.1,74.3 h -18 V 449 H 363 v 29.6 h -18 v -46.9 h -13.5 l 0.1,59.1 h 63.8 c 17.7,6.1 44.5,19.7 76.1,49.8 h 17.9 v -54.5 h 26.7 l 28.3,28.3 h 23.3 V 530 h 44.7 v -44.7 h -44.7 v 15.5 z m 13.6,-121.3 h 17.6 v 17.6 H 581.2 Z M 407.9,480.6 v -66.3 c 17.7,-7.2 40.9,-20.4 67.4,-44.4 v 96.4 58.8 C 448.8,501 425.6,487.8 407.9,480.6 Z m 173.3,18.2 h 17.6 v 17.6 h -17.6 z"
        id="path36"
        style="fill:url(#SVGID_2_)"/>
      <linearGradient
        id="linearGradient1495"
        gradientUnits="userSpaceOnUse"
        x1="483.6474"
        y1="678.26202"
        x2="224.985"
        y2="279.922">
        <stop
          offset="0"
          style="stop-color:#0083E2"
          id="stop1491"/>
        <stop
          offset="1"
          style="stop-color:#00FB9A"
          id="stop1493"/>
      </linearGradient>
      <polygon
        class="st3"
        points="319.9,490.8 319.9,478.7 306.8,478.7 306.8,420.6 363.6,420.6 363.6,433.6 377.2,433.6 377.2,408.6 293.3,408.6 293.3,490.8 "
        id="polygon43"
        style="fill:url(#SVGID_3_)"/>
      <linearGradient
        id="linearGradient1502"
        gradientUnits="userSpaceOnUse"
        x1="452.19501"
        y1="697.01691"
        x2="201.2003"
        y2="310.48499">
        <stop
          offset="0"
          style="stop-color:#0083E2"
          id="stop1498"/>
        <stop
          offset="1"
          style="stop-color:#00FB9A"
          id="stop1500"/>
      </linearGradient>
      <polygon
        class="st4"
        points="353.9,549.6 386.1,500.4 370.5,500.4 345.7,536.1 321.9,536.1 345.2,500.4 329.7,500.4 294.9,549.6 "
        id="polygon50"
        style="fill:url(#SVGID_4_)"/>
    </g>
  </g>
</svg>
