<?xml version="1.0" encoding="utf-8"?>
<!-- Generator: Adobe Illustrator 27.2.0, SVG Export Plug-In . SVG Version: 6.00 Build 0)  -->
<svg version="1.1" xmlns="http://www.w3.org/2000/svg" xmlns:xlink="http://www.w3.org/1999/xlink" x="0px" y="0px"
	 viewBox="0 0 834.2 171" style="enable-background:new 0 0 834.2 171;" xml:space="preserve">
<style type="text/css">
	.st0{display:none;}
	.st1{display:inline;fill:#010101;}
	.st2{display:inline;fill:url(#SVGID_1_);}
	.st3{display:inline;fill:url(#SVGID_00000083047414285397306160000004764618406179023777_);}
	.st4{fill:#FFFFFF;}
	.st5{fill:url(#SVGID_00000178175343151984688270000001803316891581165736_);}
	.st6{fill:url(#SVGID_00000013888773546860208550000001313197290863954820_);}
	.st7{fill:#A4A5AF;}
	.st8{fill:url(#SVGID_00000133531029373938590460000002992178408305237638_);}
	.st9{fill:url(#SVGID_00000014628739723342026630000002582671189161387691_);}
	.st10{fill:url(#SVGID_00000126290246534134132910000017021586496004349072_);}
	.st11{fill:url(#SVGID_00000132049436303033274780000002433500340479585184_);}
</style>
<g id="Background" class="st0">
	<linearGradient id="SVGID_1_" gradientUnits="userSpaceOnUse" x1="-3.4185" y1="-41.3444" x2="850.8358" y2="216.3604">
		<stop  offset="0" style="stop-color:#77C9D4"/>
		<stop  offset="0.5" style="stop-color:#57BD91"/>
		<stop  offset="1" style="stop-color:#025249"/>
	</linearGradient>
	<rect x="-7" y="-7" class="st2" width="848.2" height="184.9"/>
</g>
<g id="Layer_1">
	<g>
		<path class="st4" d="M171.2,122.3V55.3H216V68h-29.7v14h26.5v12.7h-26.5v27.6H171.2z"/>
		<path class="st4" d="M226.6,55.3h15.1v66.9h-15.1V55.3z"/>
		<path class="st4" d="M302,122.3c-4.3-7.7-9-15.2-14-22.7c-5-7.5-10.4-14.5-16-21.2v43.8h-14.9V55.3h12.3c2.1,2.1,4.5,4.7,7.1,7.8
			c2.6,3.1,5.2,6.4,7.9,9.9c2.7,3.5,5.3,7.1,8,10.9c2.6,3.8,5.1,7.4,7.4,10.9V55.3h15v66.9H302z"/>
		<path class="st4" d="M375,122.3c-0.7-2.3-1.5-4.7-2.4-7.2c-0.9-2.5-1.7-4.9-2.6-7.3h-26.1c-0.8,2.4-1.7,4.9-2.5,7.3
			c-0.8,2.5-1.6,4.8-2.4,7.1h-15.6c2.5-7.2,4.9-13.9,7.2-20c2.3-6.1,4.5-11.9,6.6-17.3s4.3-10.5,6.4-15.4c2.1-4.9,4.3-9.6,6.5-14.2
			h14.3c2.2,4.6,4.4,9.4,6.5,14.2c2.1,4.9,4.3,10,6.5,15.4c2.2,5.4,4.4,11.2,6.6,17.3c2.3,6.1,4.7,12.8,7.2,20H375z M356.9,70.5
			c-0.3,1-0.8,2.3-1.5,4c-0.6,1.7-1.4,3.6-2.2,5.8c-0.8,2.2-1.8,4.6-2.8,7.2c-1,2.6-2.1,5.4-3.1,8.3h19.1c-1-2.9-2-5.7-3-8.3
			c-1-2.6-1.9-5.1-2.7-7.3c-0.9-2.2-1.6-4.1-2.3-5.8C357.9,72.8,357.3,71.4,356.9,70.5z"/>
		<path class="st4" d="M444.7,122.3c-4.3-7.7-9-15.2-14-22.7c-5-7.5-10.4-14.5-16-21.2v43.8h-14.9V55.3H412c2.1,2.1,4.5,4.7,7.1,7.8
			c2.6,3.1,5.2,6.4,7.9,9.9c2.7,3.5,5.3,7.1,8,10.9c2.6,3.8,5.1,7.4,7.4,10.9V55.3h15v66.9H444.7z"/>
		<path class="st4" d="M503.3,123.6c-10.9,0-19.2-3-24.9-9.1c-5.7-6.1-8.5-14.6-8.5-25.8c0-5.5,0.9-10.5,2.6-14.8
			c1.7-4.3,4.1-8,7.1-11c3-3,6.6-5.3,10.8-6.8c4.2-1.5,8.7-2.3,13.6-2.3c2.8,0,5.4,0.2,7.7,0.6c2.3,0.4,4.3,0.9,6.1,1.4
			c1.7,0.5,3.2,1.1,4.3,1.7c1.2,0.6,2,1,2.5,1.4l-4.3,12.2c-2.1-1.1-4.5-2-7.2-2.8c-2.7-0.8-5.8-1.2-9.3-1.2c-2.3,0-4.6,0.4-6.8,1.2
			c-2.2,0.8-4.2,2-5.9,3.7c-1.7,1.7-3.1,3.9-4.1,6.6c-1,2.7-1.5,6-1.5,9.9c0,3.1,0.3,6,1,8.6c0.7,2.7,1.8,5,3.3,6.9s3.5,3.5,5.9,4.6
			c2.4,1.1,5.4,1.7,8.9,1.7c2.2,0,4.2-0.1,5.9-0.4c1.7-0.3,3.3-0.6,4.6-0.9c1.4-0.4,2.5-0.8,3.6-1.2c1-0.4,2-0.9,2.8-1.3l4.2,12.1
			c-2.1,1.3-5.1,2.4-9,3.5S508.4,123.6,503.3,123.6z"/>
		<path class="st4" d="M535.4,122.3V55.3h45.2V68h-30.1v13.1h26.8v12.4h-26.8v16.1h32.4v12.7H535.4z"/>
		<path class="st4" d="M631.1,76.9c-2.7,8.6-5.4,16.6-8.2,24c-2.8,7.3-5.5,14.5-8.3,21.4h-9.4c-3.4-9.9-6.4-20.2-9-31.2
			c-2.6-10.9-5-22.9-7.3-35.7h9.9c0.9,5,1.8,10,2.8,15.1c1,5,2,9.9,3,14.6c1,4.7,2.1,9.3,3.1,13.6c1,4.3,2.1,8.3,3.2,12
			c2.6-6.8,5.3-14.2,8.2-22.3c2.9-8.1,5.6-16.4,8.1-25.1h8.1c2.5,8.6,5.2,17,8.2,25.1c3,8.1,5.7,15.5,8.3,22.3
			c1-3.6,2.1-7.6,3.1-11.9c1-4.3,2-8.8,3-13.6c1-4.7,2-9.6,2.9-14.7c1-5.1,1.9-10.1,2.8-15.1h9.6c-2.3,12.9-4.8,24.8-7.4,35.7
			c-2.6,10.9-5.6,21.3-8.9,31.2h-9.4c-2.8-7-5.6-14.1-8.3-21.4C636.5,93.5,633.8,85.5,631.1,76.9z"/>
		<path class="st4" d="M684.2,55.3h9.4v66.9h-9.4V55.3z"/>
		<path class="st4" d="M742.9,94.3c1,1.3,2.3,3,3.9,5.1c1.6,2.1,3.2,4.4,4.9,7c1.7,2.5,3.3,5.2,5,8c1.6,2.8,3,5.4,4.2,8h-10.2
			c-1.3-2.4-2.7-4.9-4.2-7.4c-1.5-2.5-3-4.9-4.6-7.2c-1.5-2.3-3.1-4.4-4.6-6.4c-1.5-2-2.9-3.7-4.1-5.2c-0.8,0.1-1.7,0.1-2.6,0.1
			s-1.8,0-2.7,0h-8.4v26.2h-9.4v-66c2.6-0.6,5.6-1.1,8.8-1.3c3.3-0.2,6.2-0.3,8.9-0.3c9.4,0,16.6,1.8,21.5,5.3
			c4.9,3.5,7.4,8.8,7.4,15.8c0,4.4-1.2,8.2-3.5,11.4C750.9,90.4,747.5,92.7,742.9,94.3z M728.7,62.9c-4,0-7.1,0.1-9.2,0.3v25.2h6.7
			c3.2,0,6.1-0.2,8.7-0.5c2.6-0.3,4.7-0.9,6.5-1.8c1.8-0.9,3.1-2.2,4.1-3.8c1-1.6,1.4-3.8,1.4-6.5c0-2.5-0.5-4.6-1.4-6.3
			c-1-1.7-2.3-3-3.9-4c-1.6-1-3.6-1.6-5.8-2C733.6,63.1,731.2,62.9,728.7,62.9z"/>
		<path class="st4" d="M770.9,122.3V55.3h40.9v8h-31.5v19.9h28v7.8h-28v23.2h33.9v8H770.9z"/>
	</g>
	<g>
		<path class="st4" d="M79.7,21.4c-35.4,0-64.1,28.7-64.1,64.1c0,6.9,1.1,13.5,3.1,19.7c1.7,5.2,4,10.1,6.8,14.6l8.5-8.5l40.2-40.2
			c0.6-0.6,1-1.2,1.3-1.8c0.9,0.7,2.2,0.1,2.2-1v-9.9c0-0.8-0.6-1.4-1.4-1.4h-9.9c-1.1,0-1.7,1.1-1.2,2c-0.7,0.3-1.3,0.8-1.9,1.4
			L28.2,95.7c-0.6-3.3-1-6.7-1-10.1c0-29,23.5-52.5,52.5-52.5s52.5,23.5,52.5,52.5S108.7,138,79.7,138c-4.3,0-8.4-0.5-12.4-1.5
			l36.1-36.1c0.5-0.5,0.9-1.1,1.3-1.7l0,0c0.9,0.9,2.3,0.3,2.3-1v-9.9c0-0.8-0.6-1.4-1.4-1.4h-9.9c-1,0-1.6,1-1.3,1.8
			c-0.7,0.3-1.3,0.8-1.8,1.4l-40.5,40.5l-8.4,8.4c4.4,3,9.1,5.4,14.2,7.2c6.8,2.4,14.1,3.8,21.7,3.8c35.4,0,64.1-28.7,64.1-64.1
			C143.8,50.1,115.1,21.4,79.7,21.4z"/>
		<path class="st4" d="M104.4,70.2c0.3-0.3,0.5-0.6,0.7-0.8c0.9,0.4,2-0.2,2-1.2v-9.9c0-0.8-0.6-1.4-1.4-1.4h-9.9
			c-1,0-1.6,1-1.3,1.8c-0.3,0.2-0.6,0.5-0.9,0.8l-56.6,56.6l-8.3,8.3c3.1,4,6.6,7.7,10.5,10.9l8.3-8.3L104.4,70.2z"/>
	</g>
</g>
</svg>
