<?xml version="1.0" encoding="utf-8"?>
<!-- Generator: Adobe Illustrator 27.2.0, SVG Export Plug-In . SVG Version: 6.00 Build 0)  -->
<svg version="1.1" xmlns="http://www.w3.org/2000/svg" xmlns:xlink="http://www.w3.org/1999/xlink" x="0px" y="0px"
	 viewBox="0 0 135.1 132.4" style="enable-background:new 0 0 135.1 132.4;" xml:space="preserve">
<style type="text/css">
	.st0{display:none;}
	.st1{display:inline;fill:#010101;}
	.st2{display:inline;fill:url(#SVGID_1_);}
	.st3{display:inline;fill:url(#SVGID_00000094615781078727464160000009426558656320490926_);}
	.st4{fill:#FFFFFF;}
	.st5{fill:url(#SVGID_00000036963188575609089610000005137760324621738933_);}
	.st6{fill:url(#SVGID_00000016763702748628747080000010901648718392531860_);}
	.st7{fill:#A4A5AF;}
	.st8{fill:url(#SVGID_00000128486136755298153660000001068754604594912919_);}
	.st9{fill:url(#SVGID_00000039831944808863347000000013941474982088467609_);}
	.st10{fill:url(#SVGID_00000117643781981805349640000003321111238598374821_);}
	.st11{fill:url(#SVGID_00000163770154563186922000000009888559908346745473_);}
</style>
<g id="Background" class="st0">
	<linearGradient id="SVGID_1_" gradientUnits="userSpaceOnUse" x1="-15.1725" y1="41.2579" x2="152.895" y2="91.9592">
		<stop  offset="0" style="stop-color:#77C9D4"/>
		<stop  offset="0.5" style="stop-color:#57BD91"/>
		<stop  offset="1" style="stop-color:#025249"/>
	</linearGradient>
	<rect x="-1.1" y="-0.9" class="st2" width="137.4" height="134.2"/>
</g>
<g id="Layer_1">
	<g>
		<path class="st4" d="M67.6,2.1C32.2,2.1,3.5,30.8,3.5,66.2c0,6.9,1.1,13.5,3.1,19.7c1.7,5.2,4,10.1,6.8,14.6l8.5-8.5L62,51.8
			c0.6-0.6,1-1.2,1.3-1.8c0.9,0.7,2.2,0.1,2.2-1v-9.9c0-0.8-0.6-1.4-1.4-1.4h-9.9c-1.1,0-1.7,1.1-1.2,2c-0.7,0.3-1.3,0.8-1.9,1.4
			L16.1,76.4c-0.6-3.3-1-6.7-1-10.1c0-29,23.5-52.5,52.5-52.5S120,37.2,120,66.2s-23.5,52.5-52.5,52.5c-4.3,0-8.4-0.5-12.4-1.5
			l36.1-36.1c0.5-0.5,0.9-1.1,1.3-1.7l0,0c0.9,0.9,2.3,0.3,2.3-1v-9.9c0-0.8-0.6-1.4-1.4-1.4h-9.9c-1,0-1.6,1-1.3,1.8
			c-0.7,0.3-1.3,0.8-1.8,1.4l-40.5,40.5l-8.4,8.4c4.4,3,9.1,5.4,14.2,7.2c6.8,2.4,14.1,3.8,21.7,3.8c35.4,0,64.1-28.7,64.1-64.1
			C131.6,30.8,102.9,2.1,67.6,2.1z"/>
		<path class="st4" d="M92.2,50.9c0.3-0.3,0.5-0.6,0.7-0.8c0.9,0.4,2-0.2,2-1.2v-9.9c0-0.8-0.6-1.4-1.4-1.4h-9.9c-1,0-1.6,1-1.3,1.8
			c-0.3,0.2-0.6,0.5-0.9,0.8L24.9,96.8l-8.3,8.3c3.1,4,6.6,7.7,10.5,10.9l8.3-8.3L92.2,50.9z"/>
	</g>
</g>
</svg>
