<?xml version="1.0" encoding="utf-8"?>
<!-- Generator: Adobe Illustrator 28.2.0, SVG Export Plug-In . SVG Version: 6.00 Build 0)  -->
<svg version="1.1" id="Layer_1" xmlns="http://www.w3.org/2000/svg" xmlns:xlink="http://www.w3.org/1999/xlink" x="0px" y="0px"
	 viewBox="0 0 801 175" style="enable-background:new 0 0 801 175;" xml:space="preserve">
<style type="text/css">
	.st0{fill:#FFFFFF;}
	.st1{fill:none;stroke:url(#SVGID_1_);stroke-width:7;stroke-miterlimit:10;}
	.st2{fill:#011E30;}
	.st3{fill:none;stroke:url(#SVGID_00000057125760788894981030000002842927394070914471_);stroke-width:7;stroke-miterlimit:10;}
</style>
<g>
	<path class="st0" d="M132,40.5v100.1h-27.8V85.3l-18.9,55.2H62l-19-55.7v55.7H15.1V40.5h33.7l25.1,65l24.6-65H132z"/>
	<path class="st0" d="M223.6,106.4h-52.7c0.3,4.4,1.5,7.6,3.6,9.7c2.1,2.1,4.9,3.2,8.2,3.2c4.6,0,8-2.1,9.9-6.2h29.7
		c-1.2,5.5-3.6,10.4-7.2,14.7c-3.6,4.3-8,7.7-13.4,10.2c-5.4,2.5-11.4,3.7-17.9,3.7c-7.9,0-14.8-1.7-20.9-5
		c-6.1-3.3-10.9-8-14.3-14.2c-3.5-6.2-5.2-13.4-5.2-21.7c0-8.3,1.7-15.6,5.1-21.7c3.4-6.1,8.2-10.8,14.3-14.1c6.1-3.3,13.1-5,21.1-5
		c7.9,0,14.8,1.6,20.9,4.8c6.1,3.2,10.8,7.8,14.2,13.8c3.4,6,5.1,13.1,5.1,21.2C224,102,223.9,104.2,223.6,106.4z M195.6,92.9
		c0-3.4-1.1-6.1-3.4-8c-2.3-1.9-5.1-2.9-8.5-2.9c-3.4,0-6.2,0.9-8.4,2.8c-2.2,1.8-3.6,4.6-4.3,8.2H195.6z"/>
	<path class="st0" d="M235.3,79.1c3-6.2,7.1-10.9,12.3-14.2c5.2-3.3,11-5,17.3-5c5.1,0,9.7,1.1,13.7,3.2c4,2.1,7.2,5,9.4,8.7V35.5
		h28v105.1h-28v-11.1c-2.2,3.7-5.3,6.6-9.2,8.8c-4,2.2-8.7,3.3-14.1,3.3c-6.3,0-12.1-1.7-17.3-5c-5.2-3.3-9.2-8.1-12.2-14.3
		c-3-6.2-4.5-13.4-4.5-21.7C230.8,92.5,232.3,85.3,235.3,79.1z M284,88.6c-2.8-2.9-6.2-4.4-10.3-4.4c-4.2,0-7.6,1.4-10.4,4.3
		c-2.7,2.9-4.1,6.9-4.1,12.1c0,5.1,1.4,9.2,4.1,12.1c2.7,3,6.2,4.5,10.4,4.5c4.1,0,7.5-1.5,10.3-4.4c2.8-2.9,4.2-7,4.2-12.2
		C288.2,95.6,286.8,91.6,284,88.6z"/>
	<path class="st0" d="M334.2,49.5c-3-2.7-4.5-6.1-4.5-10.2c0-4.2,1.5-7.6,4.5-10.4c3-2.7,6.9-4.1,11.9-4.1c4.8,0,8.7,1.4,11.7,4.1
		c3,2.7,4.5,6.2,4.5,10.4c0,4.1-1.5,7.5-4.5,10.2c-3,2.7-6.9,4-11.7,4C341.1,53.5,337.1,52.2,334.2,49.5z M359.8,60.9v79.7H332V60.9
		H359.8z"/>
	<path class="st0" d="M375.6,79.1c3-6.2,7.1-10.9,12.2-14.2c5.2-3.3,10.9-5,17.3-5c5.5,0,10.2,1.1,14.2,3.3c4,2.2,7.1,5.1,9.2,8.8
		V60.9h27.8v79.7h-27.8v-11.1c-2.2,3.7-5.3,6.6-9.3,8.8c-4,2.2-8.7,3.3-14.1,3.3c-6.3,0-12.1-1.7-17.3-5c-5.2-3.3-9.2-8.1-12.2-14.3
		c-3-6.2-4.5-13.4-4.5-21.7C371.2,92.5,372.6,85.3,375.6,79.1z M424.3,88.6c-2.8-2.9-6.2-4.4-10.3-4.4c-4.2,0-7.6,1.4-10.4,4.3
		c-2.7,2.9-4.1,6.9-4.1,12.1c0,5.1,1.4,9.2,4.1,12.1c2.7,3,6.2,4.5,10.4,4.5c4.1,0,7.5-1.5,10.3-4.4c2.8-2.9,4.2-7,4.2-12.2
		C428.5,95.6,427.1,91.6,424.3,88.6z"/>
</g>
<g>
	<path class="st0" d="M531.2,41.6v10.5h-43v33.4h34.9V96h-34.9v44.6h-12.9v-99H531.2z"/>
	<path class="st0" d="M615.9,62.8v77.8h-12.9v-11.5c-2.5,4-5.9,7.1-10.3,9.3c-4.4,2.2-9.3,3.3-14.6,3.3c-6.1,0-11.5-1.3-16.3-3.8
		c-4.8-2.5-8.6-6.3-11.4-11.3c-2.8-5-4.2-11.1-4.2-18.3V62.8h12.8v43.9c0,7.7,1.9,13.6,5.8,17.7c3.9,4.1,9.2,6.2,15.9,6.2
		c6.9,0,12.4-2.1,16.3-6.4c4-4.3,6-10.5,6-18.6V62.8H615.9z"/>
	<path class="st0" d="M649.2,138.8c-4.7-2-8.5-4.9-11.2-8.5c-2.7-3.6-4.3-7.8-4.5-12.6h13.4c0.4,3.9,2.2,7.1,5.5,9.5
		c3.3,2.5,7.5,3.7,12.9,3.7c4.9,0,8.8-1.1,11.6-3.3c2.8-2.2,4.3-4.9,4.3-8.2c0-3.4-1.5-5.9-4.5-7.6c-3-1.7-7.7-3.3-14.1-4.9
		c-5.8-1.5-10.5-3.1-14.1-4.6c-3.6-1.6-6.8-3.9-9.4-7c-2.6-3.1-3.9-7.1-3.9-12.1c0-4,1.2-7.6,3.6-10.9c2.4-3.3,5.7-5.9,10.1-7.9
		c4.4-1.9,9.3-2.9,14.9-2.9c8.6,0,15.6,2.2,20.9,6.5c5.3,4.4,8.1,10.3,8.5,17.9h-12.9c-0.3-4.1-1.9-7.3-4.9-9.8c-3-2.5-7-3.7-12-3.7
		c-4.6,0-8.3,1-11.1,3c-2.7,2-4.1,4.6-4.1,7.8c0,2.6,0.8,4.7,2.5,6.3c1.7,1.7,3.7,3,6.2,4c2.5,1,6,2.1,10.4,3.3
		c5.6,1.5,10.1,3,13.6,4.5c3.5,1.5,6.5,3.7,9,6.6c2.5,2.9,3.8,6.8,3.9,11.5c0,4.3-1.2,8.1-3.6,11.5c-2.4,3.4-5.7,6.1-10,8
		c-4.3,1.9-9.3,2.9-14.8,2.9C659.3,141.9,654,140.9,649.2,138.8z"/>
	<path class="st0" d="M782.5,106.5h-62.2c0.5,7.7,3.1,13.7,7.9,18c4.8,4.3,10.6,6.5,17.4,6.5c5.6,0,10.2-1.3,14-3.9
		c3.7-2.6,6.4-6.1,7.9-10.4h13.9c-2.1,7.5-6.2,13.6-12.5,18.3c-6.2,4.7-14,7-23.3,7c-7.4,0-14-1.7-19.8-5c-5.8-3.3-10.4-8-13.7-14.1
		c-3.3-6.1-5-13.2-5-21.2c0-8,1.6-15.1,4.8-21.2c3.2-6.1,7.7-10.7,13.6-14s12.5-4.9,20.1-4.9c7.4,0,13.9,1.6,19.6,4.8
		c5.7,3.2,10.1,7.6,13.1,13.3c3.1,5.6,4.6,12,4.6,19.1C782.9,101.2,782.7,103.8,782.5,106.5z M766.3,83.3c-2.2-3.6-5.1-6.2-8.9-8.1
		c-3.7-1.8-7.9-2.8-12.4-2.8c-6.5,0-12.1,2.1-16.7,6.2c-4.6,4.2-7.2,9.9-7.9,17.3h49.1C769.5,91.1,768.4,86.8,766.3,83.3z"/>
</g>
<linearGradient id="SVGID_1_" gradientUnits="userSpaceOnUse" x1="13.7197" y1="152.9796" x2="783.7674" y2="152.9796">
	<stop  offset="0" style="stop-color:#00D4B1"/>
	<stop  offset="1" style="stop-color:#008ADE"/>
</linearGradient>
<polyline class="st1" points="13.7,153 783.8,153 783.8,153 13.7,153 "/>
</svg>
